<svg width="100%" viewBox="0 0 680 220" xmlns="http://www.w3.org/2000/svg">
  <rect width="262.75" height="164.59" rx="32.04" x="368" y="27.5" fill="#ea5923" style="fill:rgb(234, 89, 35);stroke:none;color:rgb(255, 255, 255);stroke-width:1px;stroke-linecap:butt;stroke-linejoin:miter;opacity:1;font-family:&quot;Anthropic Sans&quot;, -apple-system, &quot;system-ui&quot;, &quot;Segoe UI&quot;, sans-serif;font-size:16px;font-weight:400;text-anchor:start;dominant-baseline:auto"/>
  <path d="M188.52 67.09h-53.05v24.33h46.44v18.38h-46.44v44.36H113.5V48.5h75.01v18.59Zm4.7 34.17q.645-10.26 5.74-16.87 8.115-10.335 27.85-10.34a49.48 49.48 0 0 1 22.83 5.1q9.975 5.1 9.98 19.24v35.89q0 3.735.14 9.04.21 4.02 1.22 5.46a7.279 7.279 0 0 0 3.01 2.37v3.01h-22.25a22.94 22.94 0 0 1-1.29-4.45q-.36-2.085-.57-4.74a42.012 42.012 0 0 1-9.76 7.82 29.319 29.319 0 0 1-14.93 3.8q-10.62 0-17.55-6.07t-6.93-17.19q0-14.43 11.13-20.89 6.105-3.51 17.95-5.02l6.96-.86a32.412 32.412 0 0 0 8.11-1.79q4.38-1.86 4.38-5.81 0-4.815-3.34-6.64c-2.23-1.22-5.49-1.83-9.8-1.83q-7.245 0-10.27 3.59a14.872 14.872 0 0 0-2.87 7.18h-19.74Zm18.02 30.58c0 3.49.98 6.01 2.94 7.54a10.676 10.676 0 0 0 7.03 2.37 20.816 20.816 0 0 0 12.17-3.88q5.565-3.87 5.78-14.14v-7.61a22.4 22.4 0 0 1-3.91 1.97 32.926 32.926 0 0 1-5.42 1.4l-4.59.86q-6.465 1.155-9.26 2.8a9.387 9.387 0 0 0-4.74 8.69Zm112.14-34.74q-3.015-6.03-11.49-6.03-10.41 0-14.28 8.83a30.323 30.323 0 0 0-2.01 11.92v42.35h-20.39v-78.1h19.74v11.41a34.788 34.788 0 0 1 7.47-8.69q6.315-4.74 16.01-4.74 12.135 0 19.85 6.35t7.72 21.07v52.69h-20.96v-47.59c0-4.12-.55-7.27-1.65-9.48Z" fill="#eb5923" style="fill:rgb(235, 89, 35);stroke:none;color:rgb(255, 255, 255);stroke-width:1px;stroke-linecap:butt;stroke-linejoin:miter;opacity:1;font-family:&quot;Anthropic Sans&quot;, -apple-system, &quot;system-ui&quot;, &quot;Segoe UI&quot;, sans-serif;font-size:16px;font-weight:400;text-anchor:start;dominant-baseline:auto"/>
  <path d="M452.13 112.92v41.1h-18.69v-42.58a18.654 18.654 0 0 0-1.93-9.12q-2.505-4.875-9.5-4.88c-4.66 0-8.51 1.62-11.01 4.85s-3.76 7.85-3.76 13.84v37.89H389V59.68h18.24v33.46a22.435 22.435 0 0 1 9.22-8.51 25.976 25.976 0 0 1 11.01-2.41 29.842 29.842 0 0 1 11.78 2.25 20.649 20.649 0 0 1 8.7 6.87 18.237 18.237 0 0 1 3.53 8.06 99.045 99.045 0 0 1 .64 13.52Zm58.81 31.21c-.17.21-.6.86-1.28 1.93a13.266 13.266 0 0 1-2.44 2.83 25.6 25.6 0 0 1-8.32 5.27 28.408 28.408 0 0 1-9.41 1.41q-15.54 0-20.93-11.17-3.015-6.165-3.02-18.17v-42.19h18.75v42.19q0 5.97 1.41 8.99 2.5 5.325 9.83 5.33 9.375 0 12.84-7.58a27.408 27.408 0 0 0 1.8-10.85v-38.08h18.56v70h-17.79v-9.89Zm70.55 11.76q-8.67 0-13.94-3.47a27.86 27.86 0 0 1-6.81-7.19v8.8h-17.92V59.5h18.24v33.65a26.728 26.728 0 0 1 7.64-7.45q4.95-3.21 12.59-3.21 13.8 0 21.61 9.95t7.8 25.69c0 10.49-2.57 19.89-7.71 27.04s-12.31 10.72-21.51 10.72Zm10.01-35.84a33.723 33.723 0 0 0-1.93-12.33q-3.66-9.255-13.49-9.25c-6.55 0-11.2 3.02-13.68 9.05a34.055 34.055 0 0 0-1.93 12.46q0 8.985 3.98 14.9t12.14 5.91a12.54 12.54 0 0 0 10.98-5.72q3.915-5.715 3.92-15.03Z" fill="#fff" style="fill:rgb(255, 255, 255);stroke:none;color:rgb(255, 255, 255);stroke-width:1px;stroke-linecap:butt;stroke-linejoin:miter;opacity:1;font-family:&quot;Anthropic Sans&quot;, -apple-system, &quot;system-ui&quot;, &quot;Segoe UI&quot;, sans-serif;font-size:16px;font-weight:400;text-anchor:start;dominant-baseline:auto"/>
</svg>